# xmcd
#
# Track frame offsets:
#	150
#	15746
#	27163
#	39213
#	55333
#	66390
#	82998
#	97635
#	113302
#	124131
#	137185
#	150460
#	165217
#	176370
#	190500
#	210359
#	223846
#	237126
#	252902
#	268074
#	283283
#
# Disc length: 3945 seconds
#
# Revision: 0
# Processed by: cddbd v1.5.2PL0 Copyright (c) Steve Scherf et al.
# Submitted via: EZCDAudioConverter 4.0.5.1
#
DISCID=0f0f6715
DTITLE=Various Artist - ERG NU MUSIC TRAXX VOL 511 US
DYEAR=2019
DGENRE=BLUES
TTITLE0=Selena Gomez\n - Lose You To Love Me
TTITLE1=Isabela Merced\n - Papi
TTITLE2=Lizzo ft. Ariana Grande - Good As Hell [Remix]
TTITLE3=JAGMAC\n - What's Right With Me\nWhat's Right With Me
TTITLE4=Jackson Wang\n - Bullet To My Heart
TTITLE5=Yella Beezy ft. Chris Brown\n - Restroom Occupied
TTITLE6=Young Thug ft. Gunna\n - Hot
TTITLE7=YK Osiris ft. Kehlani\n - Ride
TTITLE8=Summer Walker\n - Playing Games
TTITLE9=Fabolous ft. Jeremih and Davido\n - Choosy
TTITLE10=Blueface ft. Jeremih\n - Close Up
TTITLE11=GATTUSO x Damon Sharpe\n - When In Rome
TTITLE12=Alesso and SUMR CAMP\n - In The Middle
TTITLE13=Mark Sixma ft. Anvy\n - Meet Again
TTITLE14=Tritonal ft. Rosie Darling\n - Never Be The Same
TTITLE15=ARTY ft. Cimo Frankel\n - Daydreams
TTITLE16=Chase Rice\n - Lonely If You Are
TTITLE17=Gabby Barrett\n - I Hope
TTITLE18=Lauren Alaina\n - Getting Good
TTITLE19=American Authors ft. Maddie Poppe and Phillip Phillips\n - Bring It O
TTITLE19=n Home
TTITLE20=Walk Off The Earth\n - I'll Be There
EXTD=
EXTT0=
EXTT1=
EXTT2=
EXTT3=
EXTT4=
EXTT5=
EXTT6=
EXTT7=
EXTT8=
EXTT9=
EXTT10=
EXTT11=
EXTT12=
EXTT13=
EXTT14=
EXTT15=
EXTT16=
EXTT17=
EXTT18=
EXTT19=
EXTT20=
PLAYORDER=
